<svg width="33" height="33" viewBox="0 0 33 33" fill="none" xmlns="http://www.w3.org/2000/svg">
<path d="M16.8608 17.8867C19.07 17.8867 20.8608 16.0959 20.8608 13.8867C20.8608 11.6776 19.07 9.88672 16.8608 9.88672C14.6517 9.88672 12.8608 11.6776 12.8608 13.8867C12.8608 16.0959 14.6517 17.8867 16.8608 17.8867Z" stroke="black" stroke-width="2" stroke-linecap="round" stroke-linejoin="round"/>
<path d="M26.8608 13.8867C26.8608 22.8867 16.8608 29.8867 16.8608 29.8867C16.8608 29.8867 6.86084 22.8867 6.86084 13.8867C6.86084 11.2346 7.91441 8.69101 9.78977 6.81565C11.6651 4.94029 14.2087 3.88672 16.8608 3.88672C19.513 3.88672 22.0565 4.94029 23.9319 6.81565C25.8073 8.69101 26.8608 11.2346 26.8608 13.8867V13.8867Z" stroke="black" stroke-width="2" stroke-linecap="round" stroke-linejoin="round"/>
</svg>
