<svg width="33" height="33" viewBox="0 0 33 33" fill="none" xmlns="http://www.w3.org/2000/svg">
<path d="M6.53593 23.0118C5.04704 20.4998 4.52625 17.5308 5.07132 14.662C5.61639 11.7932 7.18984 9.22209 9.49628 7.43122C11.8027 5.64036 14.6835 4.75295 17.5979 4.93559C20.5123 5.11824 23.2598 6.35837 25.3246 8.42318C27.3894 10.488 28.6295 13.2355 28.8122 16.1498C28.9948 19.0642 28.1074 21.945 26.3165 24.2515C24.5257 26.5579 21.9545 28.1314 19.0857 28.6764C16.217 29.2215 13.2479 28.7007 10.7359 27.2118V27.2118L6.58593 28.3868C6.41591 28.4365 6.23563 28.4396 6.06401 28.3957C5.89238 28.3518 5.73572 28.2626 5.61046 28.1373C5.48519 28.012 5.39593 27.8554 5.35203 27.6837C5.30813 27.5121 5.3112 27.3318 5.36093 27.1618L6.53593 23.0118Z" stroke="black" stroke-width="2" stroke-linecap="round" stroke-linejoin="round"/>
<path d="M19.8734 23.8867C18.5576 23.89 17.2541 23.6333 16.0379 23.1313C14.8216 22.6293 13.7165 21.8919 12.7861 20.9615C11.8557 20.0311 11.1183 18.926 10.6163 17.7098C10.1143 16.4935 9.85757 15.19 9.86087 13.8742C9.86418 12.9482 10.2344 12.0611 10.8904 11.4074C11.5464 10.7538 12.4348 10.3867 13.3609 10.3867V10.3867C13.5137 10.3855 13.664 10.4255 13.7959 10.5025C13.9279 10.5795 14.0367 10.6906 14.1109 10.8242L15.5734 13.3742C15.6603 13.5293 15.705 13.7044 15.7028 13.8822C15.7006 14.0599 15.6516 14.2339 15.5609 14.3867L14.3859 16.3492C14.9877 17.6881 16.0595 18.7599 17.3984 19.3617L19.3609 18.1867C19.5137 18.096 19.6877 18.047 19.8654 18.0448C20.0432 18.0426 20.2184 18.0873 20.3734 18.1742L22.9234 19.6367C23.057 19.7109 23.1681 19.8197 23.2451 19.9517C23.3221 20.0837 23.3621 20.234 23.3609 20.3867C23.3576 21.3118 22.9895 22.1983 22.3365 22.8536C21.6836 23.5089 20.7984 23.8802 19.8734 23.8867V23.8867Z" stroke="black" stroke-width="2" stroke-linecap="round" stroke-linejoin="round"/>
</svg>
